<svg xmlns="http://www.w3.org/2000/svg" xml:space="preserve" width="800" height="800" viewBox="0 0 196.979 196.979"><path d="M43.48 0C28.1.003 15.588 12.517 15.588 27.896v141.188c0 15.38 12.512 27.894 27.893 27.896h131.66a6.25 6.25 0 0 0 6.25-6.25V6.25a6.25 6.25 0 0 0-6.25-6.25H43.48zm.001 12.5h125.41v128.687H43.48a27.73 27.73 0 0 0-15.392 4.649V27.896c0-8.488 6.906-15.395 15.393-15.396zm125.41 171.979H43.482c-8.488-.001-15.394-6.908-15.394-15.396s6.905-15.395 15.393-15.396h125.41v9.146h-98.41a6.25 6.25 0 1 0 0 12.5h98.41v9.146z"/><path d="M73.496 87.7v23.664a6.25 6.25 0 0 0 6.25 6.25h37.486a6.25 6.25 0 0 0 6.25-6.25V87.701c8.258-3.315 13.982-11.413 13.982-20.669 0-11.935-9.437-21.706-21.24-22.244-4.161-5.506-10.644-8.791-17.734-8.791-7.093 0-13.575 3.285-17.735 8.791-11.804.538-21.241 10.31-21.241 22.244 0 9.257 5.725 17.354 13.982 20.668zm8.286-30.435c.473 0 .954.035 1.433.105a6.24 6.24 0 0 0 6.512-3.418 9.72 9.72 0 0 1 8.765-5.455c3.744 0 7.103 2.091 8.766 5.457a6.253 6.253 0 0 0 6.513 3.416c.476-.07.956-.105 1.429-.105 5.386 0 9.768 4.382 9.768 9.768 0 4.905-3.663 9.069-8.52 9.685a6.25 6.25 0 0 0-5.463 6.2v22.196H85.996V83.331l.001-.021a6.25 6.25 0 0 0-5.455-6.593c-4.862-.613-8.528-4.776-8.528-9.685 0-5.386 4.382-9.767 9.768-9.767z"/></svg>